<?xml version="1.0" encoding="UTF-8"?>
<svg viewBox="45 195 670 755" xmlns="http://www.w3.org/2000/svg" xmlns:xlink="http://www.w3.org/1999/xlink">
  <defs>
    <filter id="grayscale">
      <feColorMatrix type="matrix" values="0.3333 0.3333 0.3333 0 0 0.3333 0.3333 0.3333 0 0 0.3333 0.3333 0.3333 0 0 0 0 0 1 0"/>
    </filter>
    <linearGradient id="p" x1="466.6" x2="617.57" y1="578.7" y2="618.87" gradientUnits="userSpaceOnUse">
      <stop stop-color="#6d6d6d" offset="0"/>
      <stop offset="1"/>
    </linearGradient>
    <filter id="q" color-interpolation-filters="sRGB">
      <feGaussianBlur stdDeviation="6.1252698"/>
    </filter>
    <linearGradient id="o" x1="-2453.4" x2="-2447.2" y1="-455.83" y2="332.99" gradientTransform="matrix(.21225 -.025836 .025836 .21225 864.04 385.45)" gradientUnits="userSpaceOnUse">
      <stop offset="0"/>
      <stop stop-color="#666" offset=".5"/>
      <stop offset="1"/>
    </linearGradient>
    <filter id="w" color-interpolation-filters="sRGB">
      <feGaussianBlur result="result10" stdDeviation="3"/>
      <feBlend in="result10" in2="SourceGraphic" mode="multiply" result="result5"/>
      <feComposite in="result5" in2="SourceGraphic" result="fbSourceGraphic"/>
      <feGaussianBlur result="result9" stdDeviation="5"/>
      <feSpecularLighting lighting-color="#ffffff" in="result9" result="result1" specularConstant="2.20000005" specularExponent="45">
        <fePointLight x="-5000" y="-10000" z="20000"/>
      </feSpecularLighting>
      <feComposite in="result1" in2="fbSourceGraphic" operator="in" result="result2"/>
      <feComposite in="result2" in2="fbSourceGraphic" k2="2" k3="0.8" operator="arithmetic" result="result4"/>
      <feBlend in="result4" in2="result4" mode="multiply"/>
    </filter>
    <filter id="v" x="-.25" y="-.25" width="1.5" height="1.5" color-interpolation-filters="sRGB">
      <feBlend in2="SourceGraphic" mode="screen" result="result1"/>
      <feGaussianBlur result="result6" stdDeviation="7"/>
      <feComposite in="result6" in2="result6" operator="xor" result="result7"/>
      <feComposite in="result6" in2="result1" operator="atop" result="result92"/>
      <feComposite in="result7" in2="result92" operator="xor" result="result4"/>
      <feGaussianBlur in="result4" result="result3" stdDeviation="0.7"/>
      <feSpecularLighting result="result5" specularConstant="1.5" specularExponent="50" surfaceScale="4">
        <fePointLight x="-5000" y="-8000" z="20000"/>
      </feSpecularLighting>
      <feComposite in="result3" in2="SourceGraphic" k2="1" k3="1" operator="arithmetic" result="result93"/>
      <feComposite in="result5" in2="result93" operator="atop" result="result94"/>
      <feBlend in2="result94" mode="multiply"/>
    </filter>
    <filter id="u" x="-.25" y="-.25" width="1.5" height="1.5" color-interpolation-filters="sRGB">
      <feGaussianBlur result="result6" stdDeviation="1"/>
      <feComposite in="result6" in2="result6" operator="in" result="result7"/>
      <feGaussianBlur in="result7" result="result3" stdDeviation="8"/>
      <feComposite in2="result7" result="result91"/>
      <feComposite in="result3" in2="result91" operator="in" result="result5"/>
      <feColorMatrix result="result4" values="0 0 0 -1 0 0 0 0 -1 0 0 0 0 -1 0 0 0 0 1 0 "/>
      <feSpecularLighting in="result4" result="result11" specularConstant="2" specularExponent="45" surfaceScale="3">
        <fePointLight x="-5000" y="-10000" z="20000"/>
      </feSpecularLighting>
      <feComposite in2="result4" k1="1" operator="arithmetic" result="result10"/>
      <feComposite in="result5" in2="result10" k2="0.5" k3="1" operator="arithmetic" result="result8"/>
      <feComposite in2="result8" result="result9"/>
      <feBlend in2="result9"/>
    </filter>
    <filter id="t" color-interpolation-filters="sRGB">
      <feGaussianBlur in="SourceGraphic" result="result0" stdDeviation="6"/>
      <feDiffuseLighting lighting-color="#ffffff" result="result5" surfaceScale="4">
        <feDistantLight azimuth="235" elevation="45"/>
      </feDiffuseLighting>
      <feComposite in="result5" in2="SourceGraphic" k1="1.4" operator="arithmetic" result="fbSourceGraphic"/>
      <feGaussianBlur in="fbSourceGraphic" result="result0" stdDeviation="6"/>
      <feSpecularLighting lighting-color="#ffffff" in="result0" result="result1" specularExponent="25" surfaceScale="4">
        <feDistantLight azimuth="235" elevation="45"/>
      </feSpecularLighting>
      <feComposite in="fbSourceGraphic" in2="result1" k2="1" k3="1" operator="arithmetic" result="result4"/>
      <feComposite in="result4" in2="SourceGraphic" operator="in" result="result2"/>
    </filter>
    <filter id="s" color-interpolation-filters="sRGB">
      <feGaussianBlur result="result10" stdDeviation="3"/>
      <feBlend in="result10" in2="SourceGraphic" mode="multiply" result="result5"/>
      <feComposite in="result5" in2="SourceGraphic" result="fbSourceGraphic"/>
      <feGaussianBlur result="result9" stdDeviation="5"/>
      <feSpecularLighting lighting-color="#ffffff" in="result9" result="result1" specularConstant="2.20000005" specularExponent="45">
        <fePointLight x="-5000" y="-10000" z="20000"/>
      </feSpecularLighting>
      <feComposite in="result1" in2="fbSourceGraphic" operator="in" result="result2"/>
      <feComposite in="result2" in2="fbSourceGraphic" k2="2" k3="0.8" operator="arithmetic" result="result4"/>
      <feBlend in="result4" in2="result4" mode="multiply"/>
    </filter>
    <radialGradient id="c" cx="310.97" cy="351.83" r="156.39" gradientTransform="matrix(1.1136 .013864 -.004283 .34402 -33.818 226.48)" gradientUnits="userSpaceOnUse">
      <stop stop-color="#e2b595" offset="0"/>
      <stop stop-color="#28170b" offset="1"/>
    </radialGradient>
    <linearGradient id="i" x1="223.16" x2="225.69" y1="293.04" y2="400.82" gradientUnits="userSpaceOnUse">
      <stop stop-color="#641f00" offset="0"/>
      <stop stop-color="#fa4d00" offset=".48094"/>
      <stop stop-color="#641f00" offset="1"/>
    </linearGradient>
    <linearGradient id="h" x1="152.95" x2="155.68" y1="807.42" y2="729.04" gradientUnits="userSpaceOnUse">
      <stop stop-color="#461600" offset="0"/>
      <stop stop-color="#bc3a00" offset=".5"/>
      <stop stop-color="#451500" offset="1"/>
    </linearGradient>
    <radialGradient id="b" cx="249.84" cy="766.6" r="145.88" gradientTransform="matrix(1 0 0 .26123 0 566.34)" gradientUnits="userSpaceOnUse">
      <stop stop-color="#614e00" offset="0"/>
      <stop stop-color="#fc0" stop-opacity="0" offset="1"/>
    </radialGradient>
    <linearGradient id="g" x1="167.33" x2="167.43" y1="911.93" y2="830.28" gradientUnits="userSpaceOnUse">
      <stop stop-color="#3c3c3c" offset="0"/>
      <stop stop-color="#727272" offset=".5"/>
      <stop stop-color="#3c3c3c" offset="1"/>
    </linearGradient>
    <radialGradient id="a" cx="234.73" cy="949.31" r="102.93" gradientTransform="matrix(1.5553 -.44423 .11124 .38948 -241.24 639.93)" gradientUnits="userSpaceOnUse">
      <stop stop-color="#de4900" offset="0"/>
      <stop stop-color="#1c1200" offset="1"/>
    </radialGradient>
    <filter id="r" color-interpolation-filters="sRGB">
      <feGaussianBlur in="SourceGraphic" result="result0" stdDeviation="1"/>
      <feTurbulence baseFrequency="0.057" numOctaves="4" result="result1" seed="4"/>
      <feDisplacementMap in2="result1" result="result91" xChannelSelector="R"/>
      <feComposite in="result0" in2="result91" operator="out" result="result2"/>
      <feComposite in="SourceAlpha" in2="result2" k1="0.1" k3="1.2" operator="arithmetic" result="result5"/>
      <feBlend in2="result5" mode="multiply" result="fbSourceGraphic"/>
      <feGaussianBlur in="fbSourceGraphic" result="result0" stdDeviation="3"/>
      <feSpecularLighting lighting-color="#fee65d" in="result0" result="result1" specularConstant="0.40000001" specularExponent="15" surfaceScale="3">
        <fePointLight x="-5000" y="-10000" z="20000"/>
      </feSpecularLighting>
      <feComposite in="result1" in2="fbSourceGraphic" operator="in" result="result2"/>
      <feComposite in="fbSourceGraphic" in2="result2" k1="-1" k2="2.5" k3="3.5" operator="arithmetic" result="result4"/>
      <feBlend in2="result4" mode="multiply"/>
    </filter>
    <filter id="x" color-interpolation-filters="sRGB">
      <feGaussianBlur result="result10" stdDeviation="3"/>
      <feBlend in="result10" in2="SourceGraphic" mode="multiply" result="result5"/>
      <feComposite in="result5" in2="SourceGraphic" result="fbSourceGraphic"/>
      <feGaussianBlur result="result9" stdDeviation="5"/>
      <feSpecularLighting lighting-color="#ffffff" in="result9" result="result1" specularConstant="2.20000005" specularExponent="45">
        <fePointLight x="-5000" y="-10000" z="20000"/>
      </feSpecularLighting>
      <feComposite in="result1" in2="fbSourceGraphic" operator="in" result="result2"/>
      <feComposite in="result2" in2="fbSourceGraphic" k2="2" k3="0.8" operator="arithmetic" result="result4"/>
      <feBlend in="result4" in2="result4" mode="multiply"/>
    </filter>
    <radialGradient id="f" cx="623.61" cy="464.41" r="18.11" gradientTransform="matrix(4.6462 -2.2089e-7 2.0814e-7 4.3779 -2397.3 -1238.3)" gradientUnits="userSpaceOnUse">
      <stop stop-color="#343434" offset="0"/>
      <stop stop-color="#a1a1a1" offset="1"/>
    </radialGradient>
    <linearGradient id="n" x1="474.43" x2="543.24" y1="753.21" y2="753.21" gradientUnits="userSpaceOnUse">
      <stop stop-color="#797979" offset="0"/>
      <stop stop-color="#797979" stop-opacity="0" offset="1"/>
    </linearGradient>
    <radialGradient id="e" cx="633.64" cy="496.1" r="20.887" gradientTransform="matrix(1 0 0 1.0412 0 -20.421)" gradientUnits="userSpaceOnUse">
      <stop stop-color="#6a6a6a" offset="0"/>
      <stop stop-color="#404040" offset=".5"/>
      <stop stop-color="#717171" offset="1"/>
    </radialGradient>
    <linearGradient id="m" x1="391.93" x2="401.5" y1="181.19" y2="181.19" gradientUnits="userSpaceOnUse">
      <stop stop-color="#dcb654" offset="0"/>
      <stop stop-color="#f4e3d7" offset=".5"/>
      <stop stop-color="#dcb654" offset="1"/>
    </linearGradient>
    <linearGradient id="l" x1="330.64" x2="332.09" y1="374.97" y2="-2.0105" gradientTransform="matrix(.90933 .30175 -.30175 .90933 356.18 330.99)" gradientUnits="userSpaceOnUse">
      <stop offset="0"/>
      <stop stop-opacity="0" offset="1"/>
    </linearGradient>
    <radialGradient id="d" cx="262.05" cy="421.87" r="223.36" gradientUnits="userSpaceOnUse">
      <stop stop-color="#f00" offset="0"/>
      <stop stop-color="#560000" offset="1"/>
    </radialGradient>
    <linearGradient id="k" x1="440.73" x2="457.54" y1="183.3" y2="394.88" gradientTransform="matrix(1 0 0 .83315 0 68.534)" gradientUnits="userSpaceOnUse">
      <stop stop-color="#fff" offset="0"/>
      <stop stop-color="#fff" stop-opacity="0" offset="1"/>
    </linearGradient>
    <linearGradient id="j" x1="440.73" x2="440.73" y1="321.15" y2="520.18" gradientTransform="matrix(.81921 0 0 1.0633 79.68 -38.674)" gradientUnits="userSpaceOnUse">
      <stop stop-color="#500" offset="0"/>
      <stop stop-opacity="0" offset="1"/>
    </linearGradient>
  </defs>
  <g>
    <!-- <rect x="50" y="200" width="650" height="740" fill="#ffd42a"/> -->
    <path d="m62.311 699.27 65.499-78.927h367.91l-66.465 78.927z" fill="#ffd42a" filter="url(#s)"/>
    <path d="m427.5 929.13 1.755-229.86 66.465-78.927v-356.09l121.85-44.351v640.68z" fill="url(#p)" filter="url(#t)"/>
    <path d="m62.311 699.27h366.94v229.86h-366.94z" fill="#28170b" filter="url(#w)"/>
    <path d="m127.37 264.25h368.35v356.09h-367.91l-0.44044-356.09" fill="#faa" filter="url(#v)"/>
    <path d="m249.22 219.9h367.91l-121.85 44.351h-367.91z" fill="#c8beb7" filter="url(#u)"/>
    <g transform="matrix(.83407 .10676 -.10019 .88875 41.77 79.897)" stroke="#333">
      <path
        transform="matrix(.71594 0 0 .71594 2903.4 1725.8)"
        d="m-3790.1-1892.9c-1.4667 0.1785-2.4843 1.6043-2.2908 3.1935l27.543 226.28c0.1934 1.5892 1.5233 2.7292 2.99 2.5506l491.89-59.874c1.4667-0.1785 2.4935-1.6054 2.3001-3.1946l-27.543-226.28c-0.1935-1.5892-1.5326-2.7281-2.9993-2.5495zm25.95 15.532 134.65-16.39c1.4667-0.1785 2.8048 0.9511 2.9982 2.5403l23.061 189.45c0.1935 1.5892-0.8334 3.016-2.3001 3.1946l-134.65 16.39c-1.4667 0.1785-2.8059-0.9603-2.9993-2.5495l-23.061-189.45c-0.1935-1.5892 0.8345-3.0068 2.3012-3.1853zm154.91-18.857 134.65-16.39c1.4667-0.1786 2.7955 0.9522 2.9889 2.5413l23.061 189.45c0.1934 1.5892-0.8242 3.0149-2.2909 3.1935l-134.65 16.39c-1.4667 0.1786-2.8059-0.9603-2.9993-2.5495l-23.061-189.45c-0.1934-1.5892 0.8345-3.0067 2.3012-3.1853zm154.91-18.856 134.65-16.39c1.4667-0.1785 2.7954 0.9522 2.9888 2.5414l23.061 189.45c0.1935 1.5892-0.8241 3.0149-2.2908 3.1934l-134.65 16.39c-1.4667 0.1785-2.8058-0.9604-2.9993-2.5496l-23.061-189.45c-0.1934-1.5891 0.8345-3.0067 2.3012-3.1852z"
        color="#000000"
        filter="url(#q)"
        opacity=".5"
        stroke-width=".29866"/>
      <path
        d="m189.87 370.67c-1.0501 0.12779-1.7786 1.1486-1.6401 2.2863l19.719 162c0.13846 1.1378 1.0906 1.9539 2.1406 1.8261l352.16-42.866c1.0501-0.1278 1.7852-1.1494 1.6467-2.2871l-19.72-162c-0.13854-1.1378-1.0972-1.9531-2.1473-1.8253l-352.16 42.866zm18.579 11.12 96.402-11.734c1.0501-0.1278 2.0081 0.68092 2.1465 1.8187l16.51 135.64c0.13853 1.1378-0.59666 2.1593-1.6467 2.2871l-96.402 11.734c-1.0501 0.12779-2.0088-0.68752-2.1473-1.8253l-16.51-135.64c-0.13854-1.1378 0.59744-2.1527 1.6475-2.2805zm110.91-13.5 96.402-11.734c1.0501-0.12786 2.0014 0.68172 2.1399 1.8194l16.51 135.64c0.13847 1.1378-0.59007 2.1585-1.6401 2.2864l-96.402 11.734c-1.0501 0.12787-2.0088-0.68751-2.1473-1.8253l-16.51-135.64c-0.13846-1.1378 0.59745-2.1526 1.6475-2.2805zm110.91-13.5 96.403-11.734c1.0501-0.1278 2.0013 0.68171 2.1398 1.8195l16.51 135.64c0.13853 1.1378-0.59001 2.1585-1.6401 2.2863l-96.402 11.734c-1.0501 0.1278-2.0088-0.68758-2.1473-1.8254l-16.51-135.64c-0.13846-1.1377 0.59745-2.1526 1.6475-2.2804z"
        color="#000000"
        fill="url(#o)"
        stroke-width=".21382"/>
    </g>
    <g id="card_group" transform="translate(176,441)">
      <g id="card1" transform="translate(0,0)">
        <rect x="0" y="0" width="86" height="127" fill="#FF0000"/>
      </g>
      <g id="card2" transform="translate(93,0)">
        <rect x="0" y="0" width="86" height="127" fill="#00FF00"/>
      </g>
      <g id="card3" transform="translate(187,0)">
        <rect x="0" y="0" width="86" height="127" fill="#0000FF"/>
      </g>
    </g>
    <g id="amount_group">
      <rect x="160.81" y="297.09" width="300.32" height="109.48" ry="4.9678e-6" fill="url(#c)" stroke="url(#i)" stroke-linecap="round" stroke-linejoin="round" stroke-width="12.465">
        <title id="accountCacheBalanceTooltip"></title>
      </rect>
      <text x="180" y="360" font-family="monospace" font-size="35" stroke="white" fill="black" pointer-events="none" id="accountCacheBalance"></text>
    </g>
    <g id="score_group">
      <rect x="109.41" y="733.94" width="280.87" height="65.318" ry="4.9678e-6" fill="url(#b)" stroke="url(#h)" stroke-linecap="round" stroke-linejoin="round" stroke-width="10.9"/>
      <g id="score">
      </g>
    </g>

    <rect x="138.8" y="830.28" width="200.85" height="78.381" ry="22.861" fill="url(#a)" stroke="url(#g)" stroke-linecap="round" stroke-linejoin="round" stroke-width="5"/>
    <g transform="matrix(1.1224 0 -.80968 .9786 447.42 243.72)" stroke="#5b5b5b" stroke-linecap="round" stroke-linejoin="round">
      <rect x="230" y="411.07" width="40" height="29.497" ry="1.0093" fill="#7b7b7b" filter="url(#r)" id="50ban"/>
      <rect x="160" y="411.07" width="40" height="29.497" ry="1.0093" fill="#7b7b7b" filter="url(#r)" id="10ban"/>
      <rect x="90" y="411.07" width="40" height="29.497" ry="1.0093" fill="#7b7b7b" filter="url(#r)" id="5ban"/>
      <rect x="20" y="411.07" width="40" height="29.497" ry="1.0093" fill="#7b7b7b" filter="url(#r)" id="1ban"/>
      <text x="235" y="432" font-family="monospace" font-size="20" font-weight="bold" stroke="white" fill="black" pointer-events="none">50</text>
      <text x="165" y="432" font-family="monospace" font-size="20" font-weight="bold" stroke="white" fill="black" pointer-events="none">10</text>
      <text x="100" y="432" font-family="monospace" font-size="20" font-weight="bold" stroke="white" fill="black" pointer-events="none">5</text>
      <text x="30" y="432" font-family="monospace" font-size="20" font-weight="bold" stroke="white" fill="black" pointer-events="none">1</text>
    </g>
    <g transform="translate(3.3595,17.917)">
      <g stroke-linecap="round" stroke-linejoin="round">
        <path d="m542.77 716.75v74.5c-17.4 17.087-17.135 40.701-36.289 40.772-45.483-6.939-38.567-154.7 0-157.54 16.089-1.9081 21.651 30.342 36.289 42.266z" fill="url(#f)" stroke="url(#n)" stroke-width=".94989"/>
        <ellipse transform="matrix(.73644 0 0 1.7298 76.13 -104.48)" cx="633.64" cy="496.1" rx="20.634" ry="21.494" fill="url(#e)" stroke="#725f50" stroke-width=".50502"/>
      </g>
      <g filter="url(#x)">
        <g transform="matrix(.90933 .30175 -.30175 .90933 297.07 311.37)">
          <path
            d="m384.01 351.41c2.6911-119-2.1459-244-0.85838-347.33 0.11946-9.5865 6.1241-9.9775 10.814-9.2578 4.5545 0.69881 7.36 0.88139 7.3229 11.724-0.38825 113.33 1.6727 258.9 3.2055 344.37 0.19888 11.089-4.2836 17.032-10.989 16.858-6.3047-0.1638-9.7304-5.9678-9.4953-16.365z"
            fill="url(#m)"/>
          <path
            d="m391.24-5.4235c-2.7211-0.01045-5.4174 0.80083-6.9062 3.75 2.0169-0.9171 4.4602-0.82548 6.625-0.5 4.5545 0.68478 7.3496 0.84346 7.3125 11.469-0.38825 111.05 1.6859 253.72 3.2188 337.47 0.19888 10.867-4.2944 16.702-11 16.531-2.003-0.051-3.697-0.67869-5.0938-1.8125 1.5325 4.0054 4.2748 6.182 8.0938 6.2812 6.7056 0.17422 11.199-5.7543 11-16.844-1.5328-85.464-3.607-231.05-3.2188-344.38 0.0371-10.843-2.758-11.02-7.3125-11.719-0.87945-0.13494-1.7944-0.24645-2.7188-0.25z"
            fill="#d0aa53"/>
        </g>
        <path
          d="m540.22 746.8c38.357-107.4 71.678-222.53 104.03-316.09 3.0014-8.6812 8.5795-7.2248 12.627-5.155 3.9306 2.0098 6.4267 3.0224 3.121 12.871-34.55 102.93-76.604 235.93-101 314.11-3.1654 10.144-9.0348 14.195-15.08 12.014-5.6836-2.0514-7.0473-8.3628-3.696-17.747z"
          fill="url(#l)"
          opacity=".2"/>
      </g>
      <g transform="matrix(.11001 .036506 -.036506 .11001 630.92 347.15)" stroke-width="0">
        <circle transform="translate(56.965,-26.984)" cx="340.29" cy="508.19" r="223.36" fill="url(#d)"/>
        <ellipse transform="matrix(1,0,0,1.2003,-43.474,-94.252)" cx="440.73" cy="356.78" rx="119.93" ry="53.967" fill="url(#k)"/>
        <ellipse transform="matrix(.67816 0 0 .52247 98.372 472.7)" cx="440.73" cy="356.78" rx="119.93" ry="53.967" fill="url(#j)"/>
      </g>
    </g>
  </g>
</svg>
